<svg version="1.1" id="Layer_1" xmlns="http://www.w3.org/2000/svg" xmlns:xlink="http://www.w3.org/1999/xlink" x="0px" y="0px"
	 width="100%" viewBox="0 0 1578 1547" enable-background="new 0 0 1578 1547" xml:space="preserve">
<path fill="none" opacity="1.000000" stroke="#000000" stroke-linecap="round" stroke-linejoin="round" stroke-width="8.000000"
	d="
M1343.500000,484.500000 
	C1344.703247,500.514282 1343.202148,516.501099 1343.067749,532.500549 
	C1342.703491,575.832214 1342.935303,619.170227 1342.364258,662.498230 
	C1342.144775,679.166992 1342.512573,695.843201 1341.938843,712.497925 
	C1341.060669,737.999756 1342.099854,763.508972 1341.422363,788.997925 
	C1340.585083,820.497803 1340.813232,852.001038 1340.355835,883.497925 
	C1340.150024,897.666443 1340.539062,911.846680 1339.928345,925.996887 
	C1339.151245,944.001343 1339.568604,962.000671 1339.538818,980.000061 
	C1339.460083,1027.669067 1337.781372,1075.327026 1338.562256,1122.999023 
	C1338.643555,1127.965210 1335.682007,1130.094482 1331.781982,1132.105957 
	C1328.873657,1127.808838 1325.397339,1124.316406 1319.495972,1124.963257 
	C1317.693359,1125.160767 1316.492310,1123.948120 1315.484619,1122.510742 
	C1313.062988,1119.057129 1309.610596,1118.256226 1305.515381,1117.846069 
	C1300.119385,1117.305542 1294.509399,1116.423340 1289.580078,1114.312988 
	C1283.059326,1111.521729 1276.153076,1111.219482 1269.482300,1109.571411 
	C1266.411743,1108.812988 1263.312378,1108.691406 1260.919067,1106.073975 
	C1259.904053,1104.963867 1258.060425,1104.405884 1256.490112,1104.042480 
	C1246.521851,1101.735107 1236.294189,1100.639771 1226.477661,1097.571533 
	C1225.333374,1097.213867 1223.450317,1096.828491 1223.000000,1099.000000 
"/>
<path fill="none" opacity="1.000000" stroke="#000000" stroke-linecap="round" stroke-linejoin="round" stroke-width="10.000000"
	d="
M762.500000,466.000000 
	C761.413635,468.399597 760.407959,470.836761 761.516907,473.492950 
	C762.271912,475.301666 761.985291,477.161316 761.986206,479.000000 
	C762.004639,516.333313 761.769348,553.668335 762.040955,590.999695 
	C763.080200,733.832642 762.122314,876.667053 762.616943,1019.499573 
	C762.657898,1031.325317 763.310425,1043.184082 762.878052,1054.995483 
	C762.353088,1069.337524 762.785095,1083.668457 762.475464,1097.999512 
	C762.371765,1102.801636 762.871094,1107.470825 764.500000,1112.000000 
"/>
<path fill="none" opacity="1.000000" stroke="#000000" stroke-linecap="round" stroke-linejoin="round" stroke-width="8.000000"
	d="
M254.250000,472.500000 
	C251.775864,471.833344 249.482376,471.798645 246.964050,472.919220 
	C242.589417,474.865845 237.984329,476.696869 233.434814,477.706146 
	C229.163498,478.653748 228.626694,481.191406 228.602615,484.000885 
	C228.512619,494.498688 228.752609,505.002106 229.028366,515.499268 
	C229.212341,522.503174 229.903656,529.498291 229.954803,536.500305 
	C230.098557,556.171448 230.195038,575.832947 230.870270,595.504456 
	C231.607590,616.984863 230.933243,638.512512 231.605927,659.996704 
	C232.367798,684.329590 232.804993,708.659302 233.034973,732.999695 
	C233.181427,748.501465 233.385620,764.012573 234.077362,779.496521 
	C234.799896,795.669373 233.594330,811.877258 234.671692,827.988525 
	C235.865570,845.841919 234.855469,863.677734 235.558289,881.497681 
	C236.649216,909.158386 236.482803,936.837891 237.198792,964.494873 
	C237.643311,981.666321 237.400085,998.849304 238.128204,1015.994568 
	C238.899918,1034.166992 238.775208,1052.330811 239.053894,1070.499146 
	C239.294266,1086.169800 240.000000,1101.833374 240.500000,1117.500000 
"/>
<path fill="none" opacity="1.000000" stroke="#000000" stroke-linecap="round" stroke-linejoin="round" stroke-width="7.000000"
	d="
M354.500000,444.500000 
	C354.646332,443.020355 353.873657,441.982269 352.523285,442.554901 
	C344.337189,446.026184 335.456970,446.666687 327.001373,449.004913 
	C307.935608,454.277069 288.864075,459.524780 269.987183,465.459198 
	C264.461914,467.196198 258.450409,467.733032 254.447021,472.483826 
	C254.663971,473.667145 254.971573,474.582367 254.979568,475.500183 
	C255.172455,497.666595 254.431168,519.887024 255.746964,541.985291 
	C257.137115,565.332031 255.154617,588.714600 257.493744,612.000610 
	C257.543457,612.495605 257.496979,613.000000 257.500427,613.500000 
	C257.666565,637.666687 257.230499,661.857239 258.187897,685.992554 
	C258.975220,705.839294 258.231964,725.689270 259.140778,745.493530 
	C260.150726,767.502136 259.239410,789.521667 260.166046,811.492981 
	C261.010071,831.504456 260.182617,851.528625 261.176880,871.491211 
	C262.148895,891.006836 261.398529,910.510254 262.089447,929.996826 
	C262.745392,948.498291 262.653229,967.003357 263.136383,985.496460 
	C263.463104,998.003479 262.928253,1010.517761 263.568634,1022.996460 
	C264.851074,1047.988037 264.280548,1073.006104 265.099915,1097.996704 
	C265.291168,1103.829346 265.413818,1109.771729 267.000000,1115.500000 
"/>
<path fill="none" opacity="1.000000" stroke="#000000" stroke-linecap="round" stroke-linejoin="round" stroke-width="10.000000"
	d="
M646.500000,19.500000 
	C622.422119,23.740381 598.557312,28.898216 574.987610,35.455544 
	C555.415344,40.900753 536.182007,47.317116 516.945496,53.839264 
	C490.238770,62.894207 464.635925,74.471138 439.048157,86.105942 
	C427.596710,91.312935 416.682159,97.696594 405.495819,103.491905 
	C393.300720,109.809807 381.878632,117.468407 369.673462,123.832672 
	C363.929901,126.827606 358.610535,131.315216 353.038666,135.057571 
	C341.410889,142.867340 329.689484,150.595276 318.587219,159.113678 
	C307.451141,167.657990 295.448700,175.254959 285.204193,184.720978 
	C270.483826,198.322769 255.029373,211.092499 240.657364,225.149704 
	C228.408249,237.130508 217.155701,249.983902 205.099274,262.098785 
	C194.006653,273.245209 184.309814,285.692841 174.460419,297.968231 
	C168.338028,305.598633 162.941696,313.785645 156.836380,321.368256 
	C149.548523,330.419495 143.412292,340.232025 136.669800,349.621918 
	C131.300934,357.098877 127.119049,365.510712 122.239792,373.337799 
	C116.969292,381.792542 111.857567,390.299194 106.912544,398.950012 
	C100.277611,410.557129 94.257751,422.440430 88.342979,434.422485 
	C83.917397,443.387756 79.541649,452.360260 75.504036,461.501770 
	C69.186073,475.806213 62.942596,490.132172 57.948467,504.982666 
	C54.722675,514.574890 50.505810,523.851929 47.605480,533.531616 
	C42.001156,552.235779 36.304173,570.920044 31.925776,589.982971 
	C28.682262,604.104797 25.330826,618.190369 22.992252,632.498718 
	C21.029953,644.504883 18.738653,656.464050 17.080538,668.511108 
	C15.688662,678.623840 14.871704,688.822754 14.031493,699.002625 
	C12.904361,712.658813 11.412241,726.321838 11.145518,740.002808 
	C10.794830,757.990601 10.387828,776.013184 11.625816,793.991333 
	C11.738925,795.633911 11.914779,797.337402 11.971332,799.000977 
	C12.523200,815.234375 14.072139,831.366577 15.758681,847.525208 
	C16.979004,859.216980 18.754606,870.824097 20.112680,882.486877 
	C21.226414,892.051270 23.093628,901.549561 25.046562,910.990356 
	C30.167814,935.747314 36.304703,960.261475 43.516205,984.495178 
	C50.379498,1007.558838 58.635399,1030.153198 67.584663,1052.466064 
	C76.722885,1075.250000 87.261787,1097.415894 98.970863,1119.015747 
	C103.524307,1127.415771 108.295845,1135.700439 112.831673,1144.090942 
	C118.463951,1154.509521 124.555885,1164.630859 131.125214,1174.415894 
	C137.459183,1183.850464 143.721283,1193.361206 150.218109,1202.696167 
	C157.735718,1213.497559 165.521408,1224.063843 173.536224,1234.472168 
	C180.697098,1243.771484 187.812164,1253.147827 195.592224,1261.918213 
	C204.746277,1272.237183 213.727844,1282.710938 223.371857,1292.624634 
	C233.241684,1302.770508 243.481003,1312.519287 253.511963,1322.487915 
	C275.655701,1344.494263 300.153473,1363.730713 325.069977,1382.406616 
	C337.339172,1391.602905 349.907745,1400.426147 362.914001,1408.636230 
	C371.222076,1413.880615 379.274841,1419.785645 387.709320,1424.635986 
	C397.048706,1430.006592 406.432465,1435.455688 415.941315,1440.608276 
	C436.086212,1451.523926 456.677979,1461.488647 477.514801,1470.967407 
	C487.094513,1475.325317 496.634705,1479.907715 506.555786,1483.338745 
	C516.510254,1486.781250 526.034424,1491.521484 536.484131,1493.580566 
	C538.759460,1494.029053 540.834351,1495.497925 542.999817,1496.500366 
	C551.697449,1500.526733 561.117493,1502.787842 570.161011,1505.453735 
	C577.809387,1507.708618 585.863525,1509.854248 593.939575,1511.330566 
	C600.979980,1512.617798 607.892456,1515.404663 615.006165,1516.972046 
	C626.816895,1519.574585 638.628357,1522.203735 650.511597,1524.438232 
	C660.769897,1526.367188 671.150269,1527.703857 681.452271,1529.306885 
	C695.603333,1531.508789 709.771362,1533.061157 723.987854,1534.611450 
	C753.426636,1537.821655 782.948120,1539.169678 812.494751,1538.317505 
	C832.342407,1537.744995 852.204529,1536.822632 872.021851,1534.704468 
	C891.594116,1532.612427 911.090820,1530.212524 930.500610,1527.003784 
	C953.073242,1523.272095 975.387024,1518.360962 997.502808,1512.510498 
	C1026.638306,1504.802856 1055.326172,1495.668701 1083.454224,1484.880615 
	C1091.927368,1481.630737 1100.140259,1477.489258 1108.580444,1474.206909 
	C1127.145508,1466.987061 1144.751099,1457.810425 1162.402222,1448.808350 
	C1178.140137,1440.781982 1193.487427,1431.902222 1208.525513,1422.540894 
	C1224.468506,1412.616211 1240.271484,1402.456055 1255.421753,1391.392822 
	C1271.223145,1379.854370 1286.657471,1367.785156 1301.499878,1354.999756 
	C1322.692383,1336.744751 1343.426880,1318.007080 1362.508667,1297.508057 
	C1378.458252,1280.373535 1394.127441,1262.966553 1408.375854,1244.404785 
	C1417.235596,1232.862793 1426.167969,1221.338745 1434.168945,1209.110596 
	C1438.152466,1203.022461 1442.470581,1197.075928 1446.419800,1190.948364 
	C1455.012939,1177.615723 1463.354980,1164.111572 1471.438599,1150.463623 
	C1477.554321,1140.138306 1482.994019,1129.426880 1488.038330,1118.517700 
	C1491.165039,1111.755493 1494.886353,1105.265869 1497.953247,1098.478882 
	C1503.945679,1085.217407 1509.856812,1071.912476 1515.448364,1058.478516 
	C1521.508301,1043.919312 1526.748047,1029.030396 1531.435181,1013.979858 
	C1536.942139,996.297180 1542.462769,978.628052 1546.686523,960.543579 
	C1549.490234,948.539062 1552.434326,936.552429 1554.901123,924.479797 
	C1557.197510,913.241089 1558.391113,901.779907 1560.574829,890.514526 
	C1562.919067,878.421814 1563.437500,866.118042 1565.362793,853.978271 
	C1566.060791,849.577393 1566.041992,844.993774 1566.397705,840.491943 
	C1568.212280,817.536316 1568.697754,794.531555 1568.562256,771.499634 
	C1568.463013,754.633118 1567.693848,737.795410 1566.375122,721.009827 
	C1565.087158,704.614441 1562.900513,688.294067 1560.701050,671.972900 
	C1557.912354,651.279236 1553.745239,630.880432 1549.356079,610.531067 
	C1546.086670,595.373474 1541.792969,580.413879 1537.414795,565.525024 
	C1533.312622,551.574768 1528.768799,537.738464 1523.930298,524.024597 
	C1518.182983,507.734619 1511.546387,491.772278 1504.460938,476.017578 
	C1497.977661,461.601776 1491.282104,447.277924 1484.441650,433.028046 
	C1481.799072,427.523102 1478.496338,422.335327 1475.500854,416.999512 
	C1468.992798,405.407501 1462.755005,393.661926 1455.512573,382.491852 
	C1448.620972,371.862915 1442.169067,360.932587 1434.928833,350.549652 
	C1420.641357,330.060211 1405.662720,310.102997 1389.639526,290.883667 
	C1376.083496,274.623688 1361.983765,258.844025 1347.257446,243.736450 
	C1337.678833,233.909943 1327.111084,224.852615 1317.176270,215.316391 
	C1294.609375,193.654755 1269.749390,174.873260 1244.839478,156.214264 
	C1229.936401,145.050980 1213.956299,135.233505 1198.061157,125.401100 
	C1187.500122,118.868187 1176.764282,112.658768 1165.964111,106.563667 
	C1157.140625,101.584175 1148.043579,97.079994 1138.988770,92.522408 
	C1128.203247,87.093857 1117.459595,81.552231 1106.451660,76.607613 
	C1100.058716,73.736015 1093.521362,71.057762 1086.949097,68.638191 
	C1078.507446,65.530418 1070.543091,61.244301 1061.976562,58.575260 
	C1051.606689,55.344368 1041.368408,51.658840 1031.106567,48.185154 
	C1016.004578,43.073044 1000.675598,38.800831 985.475708,34.078266 
	C978.116455,31.791794 970.534180,30.176342 962.992676,28.533710 
	C948.684692,25.417267 934.393616,22.159859 919.981506,19.604156 
	C907.737671,17.432953 895.333862,16.162510 882.999878,14.501129 
	C869.547302,12.689094 856.062927,11.351851 842.517151,10.282818 
	C828.847717,9.204024 815.173584,8.669850 801.497314,8.059910 
	C791.010742,7.592220 780.479431,7.188913 770.006042,7.639960 
	C760.336609,8.056382 750.663391,8.188604 741.004761,8.609701 
	C728.318604,9.162792 715.614380,10.073442 703.014465,11.618026 
	C689.990845,13.214548 676.916565,14.494226 663.973206,16.852983 
	C659.312744,17.702284 654.552429,17.946785 649.981567,19.443707 
	C648.536377,19.917004 646.946106,19.608370 646.750000,17.500000 
"/>
<path fill="none" opacity="1.000000" stroke="#000000" stroke-linecap="round" stroke-linejoin="round" stroke-width="6.000000"
	d="
M1334.000000,472.000000 
	C1332.039185,476.999695 1332.107910,482.311096 1332.066284,487.500519 
	C1331.774536,523.832825 1332.425903,560.191528 1331.237305,596.491394 
	C1330.423462,621.344788 1331.319580,646.179260 1330.409668,670.996704 
	C1329.786133,688.004883 1330.538086,705.010315 1329.929199,721.997437 
	C1329.295898,739.668152 1330.103271,757.350220 1329.404663,774.996216 
	C1328.256348,803.996765 1329.203491,833.014709 1328.342407,861.995300 
	C1327.440918,892.335632 1328.043579,922.672729 1327.371216,952.997131 
	C1326.979492,970.670715 1327.805786,988.361938 1326.878906,1005.993652 
	C1325.433228,1033.498657 1326.418945,1061.001221 1325.972168,1088.499512 
	C1325.812378,1098.335693 1325.408325,1108.170166 1324.941650,1117.997192 
	C1324.837891,1120.182617 1324.000000,1122.333374 1323.500000,1124.500000 
"/>
<path fill="none" opacity="1.000000" stroke="#000000" stroke-linecap="round" stroke-linejoin="round" stroke-width="9.000000"
	d="
M1223.000000,1098.000000 
	C1216.182983,1095.706177 1209.029175,1095.053955 1201.984863,1094.113892 
	C1194.322632,1093.091431 1186.689941,1091.801147 1179.029541,1090.778687 
	C1169.195312,1089.466187 1159.322021,1088.404175 1149.485352,1087.111450 
	C1138.215210,1085.630493 1126.835938,1084.969849 1115.499268,1084.008911 
	C1105.169434,1083.133423 1094.847290,1082.031128 1084.497437,1081.556274 
	C1052.516968,1080.088867 1020.525757,1078.509033 988.501099,1079.064819 
	C963.652283,1079.495972 938.805298,1079.950195 913.988953,1081.855713 
	C898.798889,1083.022217 883.601379,1084.151245 868.513916,1086.107422 
	C843.155762,1089.395142 817.874512,1093.303223 793.498901,1101.496704 
	C785.403259,1104.218018 777.250854,1106.798340 770.003418,1111.505249 
	C769.810059,1111.630859 769.624817,1112.004639 769.505981,1111.975586 
	C762.605347,1110.288940 762.589966,1116.309570 760.500000,1120.000000 
"/>
<path fill="none" opacity="1.000000" stroke="#000000" stroke-linecap="round" stroke-linejoin="round" stroke-width="5.000000"
	d="
M729.000000,1143.000000 
	C727.320312,1134.083374 719.245605,1133.720215 712.953735,1131.640015 
	C701.810608,1127.956177 690.101135,1126.566772 678.492188,1125.060181 
	C668.036072,1123.703125 657.531860,1122.740967 647.013306,1121.843994 
	C627.028015,1120.139526 606.998718,1119.246704 587.022034,1117.713135 
	C576.676941,1116.919067 566.327087,1117.177368 555.976379,1116.269287 
	C540.400391,1114.902466 524.667969,1115.145630 508.999756,1115.036621 
	C469.167175,1114.759644 429.333038,1114.503174 389.500153,1114.577881 
	C372.832611,1114.609131 356.167572,1115.534058 339.499634,1115.986206 
	C330.501709,1116.230103 321.500458,1116.392944 312.499695,1116.460938 
	C310.054443,1116.479370 307.852875,1116.613525 306.500000,1119.000000 
"/>
<path fill="none" opacity="1.000000" stroke="#000000" stroke-linecap="round" stroke-linejoin="round" stroke-width="6.000000"
	d="
M737.000000,1128.500000 
	C739.713379,1118.566284 740.074158,1119.664429 729.381714,1114.232910 
	C720.668884,1109.807007 710.826294,1107.820435 701.004639,1106.466309 
	C689.984375,1104.946655 679.044739,1102.684814 667.985352,1101.657959 
	C659.670715,1100.885986 651.333923,1100.033081 642.996155,1099.569458 
	C600.699524,1097.217773 558.366577,1095.851685 516.001221,1096.572876 
	C500.168396,1096.842407 484.327637,1097.128540 468.503632,1097.617798 
	C445.656067,1098.324219 422.801880,1099.424438 400.013733,1101.178467 
	C389.180389,1102.012329 378.306549,1102.489014 367.512207,1103.616943 
	C353.013306,1105.131958 338.412781,1105.642456 323.994324,1107.964844 
	C322.369812,1108.226440 320.352631,1108.590088 319.053802,1107.898926 
	C313.098145,1104.729492 307.337402,1107.000977 301.498169,1107.989136 
	C298.848724,1108.437622 296.261444,1109.060303 293.501099,1109.092896 
	C289.204865,1109.143433 286.159943,1111.877686 283.500000,1115.000000 
"/>
<path fill="none" opacity="1.000000" stroke="#000000" stroke-linecap="round" stroke-linejoin="round" stroke-width="7.000000"
	d="
M1329.500000,1133.000000 
	C1326.210083,1135.895508 1322.311401,1136.949097 1318.000244,1137.016479 
	C1299.166260,1137.311157 1280.326050,1137.445190 1261.502075,1138.063965 
	C1243.669800,1138.650146 1225.813110,1138.802124 1208.009521,1139.690186 
	C1190.668213,1140.555176 1173.329346,1140.235596 1155.996216,1140.903076 
	C1134.510010,1141.730469 1113.003906,1142.158813 1091.503418,1142.649536 
	C1066.336548,1143.223633 1041.159424,1143.826538 1016.009399,1144.754395 
	C1001.006226,1145.307861 985.996460,1145.292847 970.995667,1145.892334 
	C943.012512,1147.010620 915.008667,1147.624268 887.003967,1148.194702 
	C870.843323,1148.523804 854.681152,1149.434692 838.500122,1149.521729 
	C832.499390,1149.554077 826.498230,1149.786987 820.500610,1150.015503 
	C816.166260,1150.180664 814.646790,1151.766724 814.499939,1156.000000 
	C814.338623,1160.646606 810.122314,1164.798828 804.012878,1167.035156 
	C783.702087,1174.469971 763.221313,1173.506836 742.469788,1169.143677 
	C736.821228,1167.956055 732.400574,1164.437134 727.015686,1162.943481 
	C723.918213,1162.084229 723.313965,1158.627441 721.664185,1156.379517 
	C720.447876,1154.722168 719.711670,1153.300781 717.500366,1153.504272 
	C707.060547,1154.465210 696.830933,1152.205811 686.499451,1151.508301 
	C666.334656,1150.146973 646.143799,1149.092896 626.016174,1147.316895 
	C621.012207,1146.875488 615.978943,1146.919434 611.000000,1146.250000 
"/>
<path fill="none" opacity="1.000000" stroke="#000000" stroke-linecap="round" stroke-linejoin="round" stroke-width="8.000000"
	d="
M1208.000000,849.000000 
	C1210.617065,852.545105 1214.975220,853.423889 1218.575928,854.801758 
	C1234.704956,860.973877 1250.034668,868.536865 1262.891235,880.120667 
	C1270.664185,887.124084 1277.016846,895.548340 1276.470093,906.998596 
	C1275.950684,917.879089 1269.827026,925.659485 1262.015259,932.517334 
	C1244.495361,947.897766 1223.221802,955.704468 1201.483154,962.445496 
	C1182.202393,968.424438 1162.501831,972.607910 1142.512817,975.586243 
	C1129.043335,977.593201 1115.572144,979.335388 1102.011963,980.626099 
	C1092.845459,981.498657 1083.673096,981.951599 1074.511108,982.646545 
	C1055.345337,984.100220 1036.170898,984.276917 1017.002014,983.896851 
	C999.492432,983.549866 981.970886,982.714111 964.509155,981.379822 
	C950.463806,980.306641 936.398193,978.756897 922.523499,976.363647 
	C900.965454,972.645264 879.425842,968.841125 858.424500,962.240234 
	C848.702759,959.184631 838.945740,956.386597 829.478943,952.552063 
	C819.197083,948.387451 809.310669,943.508789 800.012573,937.480652 
	C790.480957,931.300903 781.770691,924.304626 776.984375,913.506958 
	C771.973633,902.203125 774.608154,892.266235 781.981323,882.985168 
	C788.173950,875.190125 796.368103,869.893188 804.504639,864.506958 
	C813.177979,858.765381 822.965820,855.275391 832.554565,851.644043 
	C851.499573,844.469543 871.234985,839.817993 891.038940,835.686768 
	C894.456970,834.973694 897.691040,833.930847 901.000000,833.000000 
"/>
<path fill="none" opacity="1.000000" stroke="#000000" stroke-linecap="round" stroke-linejoin="round" stroke-width="8.000000"
	d="
M1347.500000,474.500000 
	C1340.091919,473.365112 1333.154785,470.543335 1325.995361,468.516174 
	C1316.347290,465.784271 1306.757324,462.758057 1296.980347,460.588806 
	C1279.049438,456.610504 1261.032349,452.997101 1242.990112,449.551941 
	C1227.704834,446.633179 1212.392212,443.739441 1196.984009,441.616302 
	C1180.524902,439.348328 1164.064697,437.027496 1147.510132,435.396637 
	C1134.175537,434.082977 1120.893188,432.332123 1107.508423,431.381561 
	C1098.674927,430.754211 1089.829712,430.125061 1081.010986,429.371765 
	C1054.377930,427.096741 1027.680298,426.900574 1001.005859,425.851532 
	C979.780212,425.016754 958.665710,426.597137 937.499451,426.970062 
	C922.628052,427.232025 907.786133,428.188416 893.016052,429.661163 
	C882.834106,430.676422 872.628052,431.733185 862.459900,433.227234 
	C847.551514,435.417694 832.685669,437.906128 818.051819,441.228210 
	C803.360107,444.563416 788.893555,449.255280 775.525635,456.547028 
	C771.020264,459.004578 766.489807,461.553894 762.954346,465.458679 
	C762.812073,465.615875 762.000000,465.166656 761.500000,465.000000 
"/>
<path fill="none" opacity="1.000000" stroke="#000000" stroke-linecap="round" stroke-linejoin="round" stroke-width="6.000000"
	d="
M1262.500000,1109.000000 
	C1260.098877,1111.302734 1257.040527,1111.930786 1254.009399,1111.441650 
	C1233.259521,1108.093628 1212.363037,1105.826538 1191.477173,1103.727295 
	C1182.037598,1102.778442 1172.535645,1101.824463 1163.010010,1101.313721 
	C1152.177856,1100.732910 1141.338623,1100.031372 1130.511841,1099.319458 
	C1117.510498,1098.464600 1104.509033,1098.007690 1091.507080,1097.358765 
	C1061.013306,1095.837158 1030.514038,1095.178467 1000.000977,1095.575562 
	C978.995850,1095.848999 957.973267,1096.400024 937.011902,1097.693237 
	C927.348694,1098.289551 917.646606,1098.530151 907.999512,1099.494995 
	C875.461792,1102.749756 842.840088,1105.505005 811.019043,1113.575195 
	C801.987000,1115.865723 793.034180,1118.588745 784.459717,1122.409546 
	C782.920288,1123.095581 782.973206,1125.990479 780.500000,1125.000000 
"/>
<path fill="none" opacity="1.000000" stroke="#000000" stroke-linecap="round" stroke-linejoin="round" stroke-width="7.000000"
	d="
M1319.000000,468.000000 
	C1317.307373,470.410187 1316.959351,473.103333 1316.966675,476.000092 
	C1317.026123,499.333282 1317.074097,522.667053 1316.960938,545.999817 
	C1316.919678,554.502930 1316.588867,563.005310 1316.163208,571.508179 
	C1315.906738,576.630371 1316.044922,581.832886 1316.034912,587.000061 
	C1315.967773,621.666626 1316.752441,656.353821 1315.809082,690.994812 
	C1314.637817,734.003784 1315.947510,777.014587 1314.827271,819.995483 
	C1313.958252,853.337341 1314.244751,886.665833 1314.003906,920.000000 
	C1313.817261,945.833191 1314.032227,971.675659 1313.399292,997.497559 
	C1312.741455,1024.336182 1313.518555,1051.172729 1312.892212,1077.997437 
	C1312.631348,1089.168213 1312.598877,1100.332886 1312.543091,1111.500244 
	C1312.531494,1113.846436 1311.605957,1115.857788 1311.000000,1118.000000 
"/>
<path fill="none" opacity="1.000000" stroke="#000000" stroke-linecap="round" stroke-linejoin="round" stroke-width="7.000000"
	d="
M238.500000,477.000000 
	C240.531052,482.531586 239.238861,488.344788 239.863480,494.015045 
	C240.609177,500.784607 240.407181,507.665802 240.485718,514.500183 
	C240.694458,532.666382 240.354630,550.853516 241.119659,568.994934 
	C242.103607,592.328125 242.066559,615.665222 242.500885,639.000000 
	C242.829712,656.666748 243.171570,674.333252 243.498642,692.000000 
	C243.838058,710.333252 244.166656,728.666687 244.500000,747.000000 
	C244.833344,765.333313 245.113922,783.667847 245.521973,801.999512 
	C245.729782,811.335632 246.276810,820.665466 246.382736,830.001343 
	C246.398834,831.421326 248.294357,834.390076 244.500000,834.500000 
"/>
<path fill="none" opacity="1.000000" stroke="#000000" stroke-linecap="round" stroke-linejoin="round" stroke-width="7.000000"
	d="
M805.500000,1149.500000 
	C798.024902,1143.660156 789.506042,1139.456055 781.398804,1134.671509 
	C773.159302,1129.808716 765.231445,1124.578735 757.511658,1118.983887 
	C754.658386,1116.916016 753.796753,1113.271606 751.058411,1110.931641 
	C741.002625,1102.338989 728.736511,1098.441650 716.449402,1095.191284 
	C703.173035,1091.679199 689.594360,1088.934570 675.976868,1087.179321 
	C657.581970,1084.808105 639.065430,1083.431274 620.520508,1082.193115 
	C590.332825,1080.177246 560.167664,1080.324829 530.002136,1080.679565 
	C509.158478,1080.924561 488.310059,1082.223145 467.481262,1083.743164 
	C456.177582,1084.567993 444.802460,1085.197632 433.518921,1086.210693 
	C422.507568,1087.199341 411.448334,1088.041260 400.468323,1089.802490 
	C391.889404,1091.178467 383.136292,1091.711670 374.496704,1092.977417 
	C362.509796,1094.733643 350.489594,1096.262817 338.504608,1098.031372 
	C332.977448,1098.847168 327.489471,1099.946289 322.004456,1101.022705 
	C319.265198,1101.560303 316.375793,1101.990967 315.000000,1105.000000 
"/>
<path fill="none" opacity="1.000000" stroke="#000000" stroke-linecap="round" stroke-linejoin="round" stroke-width="6.000000"
	d="
M675.500000,628.500000 
	C669.417175,621.713867 661.329285,618.694763 653.124146,615.207825 
	C643.484192,611.111267 633.413818,609.099976 623.447571,607.288269 
	C608.493286,604.569702 593.362549,602.613647 578.006287,602.241394 
	C566.510864,601.962769 554.997986,601.324524 543.501892,601.583557 
	C529.493958,601.899109 515.456421,602.347778 501.508972,603.599976 
	C471.517426,606.292786 441.760651,610.693420 412.503326,618.013245 
	C394.923676,622.411499 377.587830,627.566467 360.971558,634.935852 
	C359.429260,635.619873 357.776001,636.252380 356.043365,636.677002 
	C354.400574,637.079590 351.607544,637.440857 352.000000,640.500000 
"/>
<path fill="none" opacity="1.000000" stroke="#000000" stroke-linecap="round" stroke-linejoin="round" stroke-width="6.000000"
	d="
M246.250000,835.000000 
	C247.035431,844.652832 246.451538,854.330994 246.863190,864.005798 
	C247.535980,879.817627 247.007980,895.678467 247.579697,911.497131 
	C248.350693,932.830200 247.914764,954.184204 248.702042,975.492554 
	C249.330566,992.504150 248.957581,1009.509888 249.578110,1026.497192 
	C250.582550,1053.993286 250.982742,1081.490601 251.065750,1108.999756 
	C251.073807,1111.667969 252.000000,1114.333374 252.500000,1117.000000 
"/>
<path fill="none" opacity="1.000000" stroke="#000000" stroke-linecap="round" stroke-linejoin="round" stroke-width="7.000000"
	d="
M1182.000000,658.500000 
	C1167.309082,652.097229 1151.800903,649.130676 1136.012451,646.911682 
	C1111.431519,643.457031 1086.729614,642.459290 1062.005371,643.182068 
	C1048.339355,643.581543 1034.640381,644.357849 1020.976929,645.778198 
	C1010.822021,646.833740 1000.617004,647.802307 990.525818,649.187988 
	C976.588928,651.101807 962.675232,653.501282 948.996460,656.986084 
	C940.849060,659.061829 932.498596,660.505127 924.567749,663.199402 
	C920.315369,664.644104 917.103455,668.579285 914.030212,672.026917 
	C906.522644,680.448853 898.770203,688.768188 893.126892,698.572998 
	C889.534241,704.814941 886.587708,711.471863 884.369568,718.458618 
	C882.577515,724.103455 880.551208,729.597839 879.382996,735.476746 
	C876.834045,748.303833 876.574585,761.098389 878.249512,774.000061 
	C880.259949,789.486023 885.405823,803.960083 893.069275,817.460693 
	C899.677673,829.102478 907.450500,839.757629 917.229980,849.277405 
	C924.657593,856.507812 932.283081,863.318604 940.556335,869.423645 
	C945.414368,873.008545 950.802795,875.884460 956.005249,878.991272 
	C980.093811,893.376526 1006.339111,901.223633 1033.992065,905.057068 
	C1051.655273,907.505676 1069.358765,907.923462 1086.986206,905.881287 
	C1113.239746,902.839905 1138.239746,895.554749 1161.554199,882.597534 
	C1180.175415,872.248657 1196.193848,858.757141 1209.208862,842.270142 
	C1216.631958,832.866699 1222.595703,822.025269 1226.258301,810.079224 
	C1228.201416,803.741333 1230.923950,797.558105 1231.921509,790.988098 
	C1234.634888,773.114990 1234.093384,755.521973 1228.682129,737.943909 
	C1223.857910,722.272827 1216.888916,708.005188 1207.165649,694.877319 
	C1205.886597,693.150391 1204.291260,692.011536 1202.920532,690.575928 
	C1199.805786,687.313965 1198.553345,684.024048 1199.864502,679.461060 
	C1200.578613,676.976318 1200.684326,673.771301 1198.932983,671.552917 
	C1194.557251,666.010132 1189.733398,660.878540 1182.500000,659.000000 
"/>
<path fill="none" opacity="1.000000" stroke="#000000" stroke-linecap="round" stroke-linejoin="round" stroke-width="5.000000"
	d="
M1315.000000,1125.000000 
	C1312.447510,1126.860107 1309.878052,1127.621094 1306.483887,1127.106079 
	C1290.243652,1124.642212 1273.904785,1123.124390 1257.513428,1121.829956 
	C1235.026245,1120.053955 1212.525635,1119.000488 1190.008057,1117.843872 
	C1143.846802,1115.472900 1097.672119,1115.947144 1051.500610,1116.135742 
	C1033.672852,1116.208496 1015.826355,1117.100586 997.992615,1117.815674 
	C980.827881,1118.504028 963.638672,1119.007812 946.510071,1120.151123 
	C928.650513,1121.343262 910.797729,1122.805786 892.972412,1124.746582 
	C875.550415,1126.643677 858.181824,1128.562866 841.003540,1132.017700 
	C832.014404,1133.825684 822.992432,1135.486938 814.954468,1140.425903 
	C812.218689,1142.107056 811.915283,1143.916260 813.000000,1146.500000 
"/>
<path fill="none" opacity="1.000000" stroke="#000000" stroke-linecap="round" stroke-linejoin="round" stroke-width="6.000000"
	d="
M605.500000,811.000000 
	C596.089844,809.146484 586.520081,808.507751 576.995239,808.114929 
	C562.346619,807.510925 547.649292,807.156067 533.005249,807.654724 
	C520.327148,808.086487 507.642853,808.924622 494.974884,810.262207 
	C483.287140,811.496216 471.571869,812.718872 460.034088,814.698608 
	C446.554077,817.011719 433.158569,819.849304 419.905609,823.672852 
	C406.811127,827.450623 393.799225,831.239685 381.564545,837.133972 
	C374.039856,840.759094 365.737183,843.703125 361.000000,851.500000 
"/>
<path fill="none" opacity="1.000000" stroke="#000000" stroke-linecap="round" stroke-linejoin="round" stroke-width="7.000000"
	d="
M610.500000,1144.500000 
	C610.787781,1145.787720 610.268860,1146.127075 608.998291,1146.019897 
	C592.834167,1144.656372 576.671692,1143.268677 560.498596,1142.018311 
	C544.338318,1140.768799 528.164429,1139.697144 512.000671,1138.490967 
	C497.494171,1137.408325 482.970428,1136.627808 468.489746,1135.097168 
	C457.541595,1133.939819 446.462524,1134.029419 435.510590,1132.897705 
	C424.683014,1131.778931 413.781250,1131.704712 402.983643,1130.110718 
	C398.391998,1129.432861 393.618317,1129.243286 388.997681,1129.185303 
	C377.938049,1129.046875 367.018280,1127.441528 356.006195,1126.878662 
	C341.663452,1126.145874 327.286407,1125.122192 313.044647,1123.586182 
	C305.614136,1122.784912 298.320099,1119.604736 290.496979,1119.926270 
	C289.519165,1119.966431 288.286438,1119.213501 287.536682,1118.463379 
	C284.185120,1115.109741 280.225342,1115.772217 275.997253,1115.848633 
	C268.611694,1115.981934 261.255371,1116.753784 254.037827,1117.768921 
	C248.349380,1118.569092 243.000000,1117.953247 237.500000,1117.500000 
"/>
<path fill="none" opacity="1.000000" stroke="#000000" stroke-linecap="round" stroke-linejoin="round" stroke-width="7.000000"
	d="
M755.500000,465.500000 
	C747.252930,456.918640 738.673462,448.964325 727.599304,443.787598 
	C722.183899,441.256104 717.004272,437.600830 711.424927,435.723022 
	C697.989929,431.201324 684.301147,427.200348 670.445496,424.256683 
	C663.089478,422.693939 655.547852,421.397064 648.016235,420.379669 
	C644.182068,419.861755 640.287598,419.657349 636.473816,419.238251 
	C626.367432,418.127686 616.170349,417.503052 606.016479,416.771606 
	C585.658875,415.305206 565.313904,415.898132 545.007385,416.339050 
	C536.754700,416.518219 528.283203,417.167084 519.979309,417.623993 
	C509.789062,418.184662 499.687561,419.579956 489.509491,420.165070 
	C479.466034,420.742462 469.531982,423.043610 459.491150,423.895935 
	C449.079193,424.779785 438.848114,426.778381 428.510956,428.086456 
	C425.323517,428.489807 422.035950,428.792877 418.961731,430.164215 
	C417.717865,430.719086 415.374329,431.667969 415.500000,428.500000 
"/>
<path fill="none" opacity="1.000000" stroke="#000000" stroke-linecap="round" stroke-linejoin="round" stroke-width="8.000000"
	d="
M1200.500000,688.500000 
	C1196.738892,690.631958 1194.460205,694.562256 1190.515259,696.530579 
	C1182.426025,700.566650 1174.013184,703.350220 1165.011597,704.584778 
	C1160.166016,705.249268 1155.404541,706.452271 1150.520264,707.143433 
	C1139.215820,708.742981 1127.866943,709.710571 1116.498291,709.902100 
	C1100.504395,710.171387 1084.478638,710.559631 1068.504028,709.442078 
	C1052.971191,708.355408 1037.453125,707.092712 1021.986511,705.104736 
	C1009.507446,703.500793 997.331238,700.510193 985.008118,698.206421 
	C982.618164,697.759583 980.308716,696.817322 978.008423,695.976868 
	C976.408691,695.392334 975.280334,695.244995 975.500000,697.500000 
"/>
<path fill="none" opacity="1.000000" stroke="#000000" stroke-linecap="round" stroke-linejoin="round" stroke-width="6.000000"
	d="
M1119.000000,472.000000 
	C1126.363525,465.691498 1134.200684,468.723145 1141.449219,471.626923 
	C1158.151733,478.318024 1167.062866,491.315155 1168.896851,509.010681 
	C1169.517944,515.003845 1168.106689,521.067322 1165.420166,526.460205 
	C1160.102295,537.135132 1152.945435,546.423401 1144.689941,555.179138 
	C1136.116089,564.272522 1126.639282,572.929932 1120.633423,584.071899 
	C1114.659302,595.154968 1109.283813,606.618103 1107.839844,619.482056 
	C1107.638306,621.278748 1108.582764,622.833313 1108.000000,624.500000 
"/>
<path fill="none" opacity="1.000000" stroke="#000000" stroke-linecap="round" stroke-linejoin="round" stroke-width="6.000000"
	d="
M1000.500000,470.000000 
	C992.333313,464.064514 984.493774,466.311432 975.923401,469.812408 
	C963.060547,475.066803 955.134155,484.406403 951.130554,497.041351 
	C946.782471,510.763519 950.237061,523.231201 958.349854,535.102600 
	C965.307556,545.283813 973.963562,553.863098 982.127808,562.884338 
	C988.410583,569.826416 994.830200,576.578552 998.941650,585.028381 
	C1004.567383,596.590271 1010.057678,608.264954 1010.500000,621.500000 
"/>
<path fill="none" opacity="1.000000" stroke="#000000" stroke-linecap="round" stroke-linejoin="round" stroke-width="5.000000"
	d="
M605.500000,812.500000 
	C605.454346,811.424072 605.667847,810.218933 606.989929,810.541382 
	C624.845947,814.894775 643.513977,816.462219 659.573242,826.887146 
	C665.156067,830.511414 669.623779,834.490295 671.563538,840.981018 
	C671.755432,841.622925 672.833374,842.000000 673.500000,842.500000 
"/>
<path fill="none" opacity="1.000000" stroke="#000000" stroke-linecap="round" stroke-linejoin="round" stroke-width="5.000000"
	d="
M1059.000000,529.500000 
	C1060.036865,522.625427 1054.996704,517.824402 1052.831909,512.063171 
	C1052.085449,510.076538 1050.369995,508.064911 1048.908936,506.326538 
	C1042.574341,498.790222 1030.896729,498.485443 1024.086426,508.061432 
	C1019.297180,514.795471 1016.507751,522.571899 1017.597412,530.987366 
	C1018.526367,538.161804 1020.254883,545.243286 1023.008118,551.996704 
	C1026.139526,559.677734 1028.463013,567.866272 1032.741089,574.852356 
	C1037.153687,582.058167 1041.332642,589.533630 1046.862183,596.115784 
	C1049.102661,598.782715 1051.096436,601.129395 1054.500000,602.000000 
"/>
<path fill="none" opacity="1.000000" stroke="#000000" stroke-linecap="round" stroke-linejoin="round" stroke-width="5.000000"
	d="
M1096.500000,505.500000 
	C1091.511108,502.180756 1079.351562,503.004150 1073.493774,506.990875 
	C1068.744629,510.222992 1064.943848,514.228271 1062.454224,519.478271 
	C1061.754272,520.953918 1060.500000,522.166626 1059.500000,523.499939 
"/>
<path fill="none" opacity="1.000000" stroke="#000000" stroke-linecap="round" stroke-linejoin="round" stroke-width="5.000000"
	d="
M1102.500000,511.500000 
	C1108.370605,512.885254 1107.736450,518.034912 1107.850708,522.004272 
	C1108.093750,530.445496 1104.768921,538.296570 1100.835327,545.408875 
	C1092.619873,560.262878 1082.543823,573.833923 1070.077393,585.582153 
	C1064.943848,590.419922 1060.761108,596.254456 1055.940552,601.444824 
	C1054.554443,602.937439 1054.798950,604.058228 1055.500000,605.500000 
"/>
<path fill="none" opacity="1.000000" stroke="#000000" stroke-linecap="round" stroke-linejoin="round" stroke-width="7.000000"
	d="
M415.000000,430.500000 
	C398.666656,433.666656 382.324158,436.787140 366.006744,440.033844 
	C362.127991,440.805603 358.333344,442.000000 354.500000,443.000000 
"/>
<path fill="none" opacity="1.000000" stroke="#000000" stroke-linecap="round" stroke-linejoin="round" stroke-width="5.000000"
	d="
M921.000000,667.500000 
	C929.242310,681.048279 943.131897,685.794678 957.012268,690.463562 
	C963.106140,692.513367 969.333313,694.166687 975.500000,696.000000 
"/>
<path fill="none" opacity="1.000000" stroke="#000000" stroke-linecap="round" stroke-linejoin="round" stroke-width="5.000000"
	d="
M758.500000,1124.000000 
	C749.589600,1131.896240 739.841614,1138.350586 729.149841,1143.794312 
	C723.042419,1146.903809 716.722595,1147.672363 710.500000,1149.500000 
"/>
</svg>